<?xml version="1.0" encoding="UTF-8"?>
<svg xmlns="http://www.w3.org/2000/svg" version="1.1" viewBox="0 0 431 101.4">
  <defs>
    <style>
      .cls-1 {
        fill: #fff;
      }
    </style>
  </defs>
  <!-- Generator: Adobe Illustrator 28.7.3, SVG Export Plug-In . SVG Version: 1.2.0 Build 164)  -->
  <g>
    <g id="Calque_1">
      <g id="Calque_11">
        <g>
          <g>
            <path class="cls-1" d="M15.5,23.8v17.8h8.4c6.6,0,14.6-.4,16.4-.8l.5.6c-.2,7.4-3.7,10.3-9.5,10.3h-15.8v18.7h12.1c6.6,0,14.6-.4,16.4-.8l.5.6c-.2,7.4-3.7,11.1-9.5,11.1H0V13.2h41.3v10.6H15.5Z"/>
            <path class="cls-1" d="M58.8,41.7l-1.5-10.5c4.2-1.2,9.7-2.2,15.8-2.2,12.7,0,23,4.4,23,19.3v21.4c0,2.9.9,4.7,3.4,4.7s1.6-.2,2.2-.6l.5.4c-.5,4.3-3.9,7.9-9.7,7.9s-9.7-4.2-10.1-7.9h-.3c-4.7,5-9.3,8.7-15.5,8.7s-13.6-6.8-13.6-15.1,7.3-15.9,21.3-15.9,5.3.2,7.5.5v-4.3c0-6.3-4.2-8.7-10.4-8.7s-9,1-12.5,2.4h-.1ZM81.8,60.2c-1.8-.4-4-.6-6.4-.6-6.4,0-9,2.5-9,6.2s1.9,5.6,5.6,5.6,6.8-2.7,9.7-5.5v-5.7h.1Z"/>
            <path class="cls-1" d="M130.7,82.9c-10.9,0-17.7-6.5-17.7-17.6v-26h-7.2l-.4-.7c.5-4.2,3.3-6.3,6.9-8.9l13.9-10.1h1.1v10.1h14.1v9.5h-14v25.5c0,5.4,3.2,8.6,8.7,8.6s5-.7,6.7-2.1l.6.4c.1.7.2,1.4.2,2.1,0,6.8-7.3,9.1-12.8,9.1h-.1Z"/>
            <path class="cls-1" d="M167.4,101.4c-7.5,0-12.4-3.6-12.4-9.8s0-1.2.1-1.7l.7-.5c2.1,1.8,5.8,2.6,9.3,2.6,10.1,0,15.7-4.7,15.7-15.2v-6.9h-.3c-4.9,5.6-10.7,11.5-18.6,11.5s-5.2-1-7.1-2.8c-3.3-3.1-3.8-7.6-3.8-11.9V29.8h14.3v33.2c0,2.7,1.2,5.5,4.4,5.5s8.1-5.1,10.8-8.1v-30.6h14.3v44.3c0,15.9-11.6,27.3-27.3,27.3h0Z"/>
            <path class="cls-1" d="M232.9,81.6c-7.2,0-14.1-.2-21.2-.7V13.6c8.2-.4,16.5-.7,24.7-.7s24.7,3.4,24.7,16.2-5.5,12.2-11.2,14.6v.2c8.2,1.5,14.4,7.3,14.4,15.9,0,15.4-14.9,21.8-31.4,21.8h0ZM233.9,21.6c-2.5,0-4.6.2-6.7.4v20.3c2.3.2,4.5.2,6.8.2,6.6,0,11.8-4.2,11.8-10.8s-5.6-10-11.9-10h0ZM235.4,50.6c-2.6,0-5.5,0-8.1.2v21.8c2,.2,4.4.4,6.5.4,7.3,0,14.7-3.6,14.7-11.7s-6.2-10.7-13-10.7h0Z"/>
            <path class="cls-1" d="M296.7,83.2c-16.6,0-25.1-12.5-25.1-28.2s10.4-26.8,26.7-26.8,24.7,9.7,24.7,25.4-9.4,29.6-26.3,29.6h0ZM297.2,37.5c-8.8,0-10.6,9.2-10.6,16s1.5,20.3,11.1,20.3,10.5-11.3,10.5-18.5-1.7-17.8-11-17.8h0Z"/>
            <path class="cls-1" d="M376.8,38.9l-.8.5c-.9-.6-1.6-.9-2.5-.9-5.5,0-9.6,9.7-12.9,15.6l15.8,27.2h-16.9l-9.5-17.1c-2.1,5-7.1,17.5-16.2,17.5s-7.6-2-7.6-6.6.1-2.4.5-3.2l.9-.5c.8.5,1.7.8,2.6.8,5.7,0,10.2-10.7,13.5-16.7l-14.9-25.8h16.7l8.9,16c3.7-8.3,7.7-16.6,15.4-16.6s7.4,2.1,7.4,6.5-.1,2.4-.5,3.2h.1Z"/>
          </g>
          <path class="cls-1" d="M383.7,15.1h-.7c-1.1,0-1.8-.7-1.8-1.7s.8-1.7,1.8-1.8h7.7c.4,0,.6-.1.8-.4,2-3.4,4-6.8,6.1-10.1.5-.8,1.2-1.2,2-1,1.2.3,1.7,1.5,1.2,2.5-.3.6-.7,1.2-1.1,1.9-1.3,2.2-2.6,4.4-4,6.6,0,.1-.2.3-.3.5h21.6c-.1-.2-.2-.4-.3-.5-1.7-2.8-3.3-5.6-5-8.3-.7-1.1-.1-2.4,1.1-2.7.7-.2,1.5.2,1.9.9,1.4,2.3,2.7,4.6,4.1,6.8.7,1.1,1.4,2.3,2.1,3.4.2.3.4.4.7.4h7.8c.9,0,1.6.6,1.7,1.5s-.4,1.7-1.2,1.9h-1c-.2,0-.4.2-.4.4-.5,3.1-1,6.3-1.5,9.5-.6,3.5-1.1,7.1-1.8,10.6-.5,3-3.2,5.1-6.3,5.1h-25.1c-3.6,0-6.1-2.3-6.7-5.8-.6-3.9-1.3-7.8-1.9-11.6-.4-2.5-.8-5.1-1.2-7.6,0-.1,0-.3-.1-.5h-.2ZM404.3,26.1v4.5c0,1.1.8,1.9,1.7,1.9s1.7-.8,1.7-1.9v-9.1c0-.4-.2-.8-.4-1.1-.4-.6-1.2-.8-1.8-.6-.8.2-1.2.9-1.2,1.7v4.6h0ZM395.1,26v4.6c0,1,.8,1.8,1.7,1.8s1.7-.7,1.7-1.7v-9.3c0-1-.8-1.7-1.8-1.7s-1.6.8-1.6,1.8v4.5h0ZM417,26.1v-4.4c0-1.1-.7-1.9-1.7-1.9s-1.7.7-1.7,1.8v9.1c0,1,.8,1.8,1.7,1.8s1.7-.8,1.7-1.9v-4.6h0Z"/>
        </g>
      </g>
    </g>
  </g>
</svg>